# xmcd
#
# Track frame offsets:
#	150
#	9263
#	20271
#	32596
#	41680
#	54513
#	64898
#	72929
#	83550
#	96092
#	107507
#	117426
#	128136
#	138530
#	149697
#	159879
#	170849
#	178580
#	191986
#	203694
#	213109
#	223954
#	233934
#	242987
#	255867
#	264878
#
# Disc length: 3702 seconds
#
# Revision: 1
# Processed by: cddbd v1.5PL3 Copyright (c) Steve Scherf et al.
# Submitted via: audiograbber 1.82.02
#
DISCID=720e741a
DTITLE=Various Artist - ABC Paramount Doo-Wop Vol #4
DYEAR=1900
DGENRE=
TTITLE0=Marvels - I Won't Have You Breaking My Heart
TTITLE1=Flares - Aladdins Lamp
TTITLE2=Sophomores (Anthony and the) - Gee But I'd Give The World
TTITLE3=JoAnn Campbell - Eddie My Love
TTITLE4=Ronnie Haig - Don't You Hear Me Calling
TTITLE5=Gliders (Glen Pace and the) - Tell Me
TTITLE6=Montclaires - No Baby
TTITLE7=Flaires - She Loves To Rock
TTITLE8=Sophomores (Anthony and the) - Get Back To You
TTITLE9=Frankie Nolan - Summer All Year Round
TTITLE10=Del Mars - You Know
TTITLE11=Steve Gibson - Together
TTITLE12=Frankie Nolan - I Still Care
TTITLE13=Montclaires - I Believe In Your Love
TTITLE14=Todd Richards - Heart Of A Clown
TTITLE15=Sophomores (Anthony and the) - I'll Go Through Life Loving You
TTITLE16=Sophomores (Anthony and the) - Wild For Her
TTITLE17=Flairs - In Self Defense
TTITLE18=Alan Greer - Oh My Darling
TTITLE19=Sophomores (Anthony and the) - It Depends On You
TTITLE20=JoAnn Campbell - It Wasn't Right
TTITLE21=Marvels - Jump, Rock And Roll
TTITLE22=Flares - Steppin' Out
TTITLE23=Sophomores (Anthony and the) - Heartbreak
TTITLE24=Todd Richards - Tell Me Teenage Tears
TTITLE25=Steve Gibson - I Went To Your Wedding
EXTD=
EXTT0=
EXTT1=
EXTT2=
EXTT3=
EXTT4=
EXTT5=
EXTT6=
EXTT7=
EXTT8=
EXTT9=
EXTT10=
EXTT11=
EXTT12=
EXTT13=
EXTT14=
EXTT15=
EXTT16=
EXTT17=
EXTT18=
EXTT19=
EXTT20=
EXTT21=
EXTT22=
EXTT23=
EXTT24=
EXTT25=
PLAYORDER=
